<svg id="Layer_1" data-name="Layer 1" xmlns="http://www.w3.org/2000/svg" viewBox="0 0 424.1 128.72"><defs><style>.cls-1,.cls-2,.cls-3,.cls-4{fill:#f42f2f;}.cls-2{opacity:0.75;}.cls-3{opacity:0.5;}.cls-4{opacity:0.25;}</style></defs><path class="cls-1" d="M524.27,446.24h-38q-8.24,0-11.76-3.7T471,430.78V337.22q0-8.24,3.61-11.85t11.67-3.61h40.33A93.64,93.64,0,0,1,542,322.87a32.9,32.9,0,0,1,11.71,4.24,30.82,30.82,0,0,1,7.81,6.67,29.37,29.37,0,0,1,5.18,8.91A29.86,29.86,0,0,1,568.51,353q0,18.67-18.68,27.34,24.52,7.81,24.53,30.4a34.1,34.1,0,0,1-5.35,18.8,32,32,0,0,1-14.43,12.36,51.47,51.47,0,0,1-13.07,3.35A133.44,133.44,0,0,1,524.27,446.24ZM496.17,340.7v32.18h23.09q9.42,0,14.56-1.79a13.88,13.88,0,0,0,7.86-6.79,15.36,15.36,0,0,0,2.12-8q0-9.42-6.71-12.52t-20.46-3.1ZM522.4,391H496.17V427.3h27.08q25.56,0,25.56-18.42,0-9.44-6.63-13.67T522.4,391Z" transform="translate(-470.95 -319.64)"/><path class="cls-2" d="M681.34,401.24a54.81,54.81,0,0,1-3.22,19.1,42.27,42.27,0,0,1-9.34,15A41.19,41.19,0,0,1,654.17,445a51.51,51.51,0,0,1-19.1,3.36,50.2,50.2,0,0,1-18.93-3.4,41.79,41.79,0,0,1-23.9-24.66,54.49,54.49,0,0,1-3.19-19.06A55.36,55.36,0,0,1,592.28,382,41.87,41.87,0,0,1,601.53,367a40.75,40.75,0,0,1,14.61-9.55,55.18,55.18,0,0,1,38,0,41.11,41.11,0,0,1,24,24.62A55.08,55.08,0,0,1,681.34,401.24Zm-23.26,0q0-14.19-6.24-22.08t-16.77-7.9a20.75,20.75,0,0,0-12,3.53,22.33,22.33,0,0,0-8,10.4,47.2,47.2,0,0,0,0,31.92,22.68,22.68,0,0,0,7.89,10.4,20.5,20.5,0,0,0,12.1,3.61q10.53,0,16.77-7.94T658.08,401.24Z" transform="translate(-470.95 -319.64)"/><path class="cls-3" d="M763.11,435.11v-2.29a58.62,58.62,0,0,1-9.21,8.7,34.72,34.72,0,0,1-9.85,5.1,37,37,0,0,1-11.59,1.74,34.11,34.11,0,0,1-15.41-3.53,35.79,35.79,0,0,1-12.27-10.06,46,46,0,0,1-7.86-15.36,65.77,65.77,0,0,1-2.67-19.11q0-21.74,10.61-33.88t27.94-12.14q10,0,16.89,3.44a47.11,47.11,0,0,1,13.42,10.57V334.08q0-7.14,2.84-10.79a9.69,9.69,0,0,1,8.11-3.65q5.27,0,8.11,3.36t2.84,9.89V435.11q0,6.63-3,9.94a10.29,10.29,0,0,1-7.9,3.31,10.1,10.1,0,0,1-7.85-3.44Q763.11,441.49,763.11,435.11Zm-45.6-34a39.55,39.55,0,0,0,2.93,16,22.4,22.4,0,0,0,8,10,19.76,19.76,0,0,0,11.12,3.35,20.49,20.49,0,0,0,11.16-3.18,21.9,21.9,0,0,0,8.07-9.76q3-6.58,3-16.43a38.39,38.39,0,0,0-3-15.92A23.93,23.93,0,0,0,750.67,375a19.47,19.47,0,0,0-11.25-3.53A19,19,0,0,0,728,375a23.2,23.2,0,0,0-7.77,10.36A41.17,41.17,0,0,0,717.51,401.07Z" transform="translate(-470.95 -319.64)"/><path class="cls-4" d="M895.05,401.24a54.81,54.81,0,0,1-3.22,19.1,42.41,42.41,0,0,1-9.34,15A41.19,41.19,0,0,1,867.88,445a51.55,51.55,0,0,1-19.1,3.36,50.29,50.29,0,0,1-18.94-3.4,41.79,41.79,0,0,1-23.9-24.66A58.93,58.93,0,0,1,806,382,41.87,41.87,0,0,1,815.24,367a40.8,40.8,0,0,1,14.6-9.55,55.21,55.21,0,0,1,38,0,41.11,41.11,0,0,1,24,24.62A55.08,55.08,0,0,1,895.05,401.24Zm-23.26,0q0-14.19-6.24-22.08t-16.77-7.9a20.75,20.75,0,0,0-12,3.53,22.2,22.2,0,0,0-8,10.4,47.12,47.12,0,0,0-.05,31.92,22.7,22.7,0,0,0,7.9,10.4,20.48,20.48,0,0,0,12.1,3.61q10.53,0,16.77-7.94T871.79,401.24Z" transform="translate(-470.95 -319.64)"/></svg>